REM DIRINDEX 1\6,1\2\7,1\2\8,1\2\9,1\3\10,1\3\11,1\4\12,1\4\13,1\4\14,1\5\15,1\5\16,1\5\17
REM DIRNAME cjc041,folder01,folder02,folder03,folder04,folder05,folder06,folder07,folder08,folder09,folder10,folder11,folder12,folder13,folder14,folder15,folder16
TITLE ""
FILE "3Q_t2_0301-0315.mp3" MP3
  TRACK 01 AUDIO
    TITLE "6:cjc041_4316"
    INDEX 01 00:00:00
  TRACK 02 AUDIO
    TITLE "0:"
    INDEX 01 00:07:27
  TRACK 03 AUDIO
    TITLE "7:cjc041_4317"
    INDEX 01 00:08:36
  TRACK 04 AUDIO
    TITLE "0:"
    INDEX 01 00:09:49
  TRACK 05 AUDIO
    TITLE "8:cjc041_4318"
    INDEX 01 00:10:35
  TRACK 06 AUDIO
    TITLE "0:"
    INDEX 01 00:11:52
  TRACK 07 AUDIO
    TITLE "9:cjc041_4319"
    INDEX 01 00:12:30
  TRACK 08 AUDIO
    TITLE "0:"
    INDEX 01 00:13:49
  TRACK 09 AUDIO
    TITLE "7:cjc041_4320"
    INDEX 01 00:15:34
  TRACK 10 AUDIO
    TITLE "0:"
    INDEX 01 00:16:44
  TRACK 11 AUDIO
    TITLE "8:cjc041_4321"
    INDEX 01 00:17:20
  TRACK 12 AUDIO
    TITLE "0:"
    INDEX 01 00:20:14
  TRACK 13 AUDIO
    TITLE "9:cjc041_4322"
    INDEX 01 00:20:67
  TRACK 14 AUDIO
    TITLE "0:"
    INDEX 01 00:21:74
  TRACK 15 AUDIO
    TITLE "7:cjc041_4323"
    INDEX 01 00:23:51
  TRACK 16 AUDIO
    TITLE "0:"
    INDEX 01 00:25:01
  TRACK 17 AUDIO
    TITLE "8:cjc041_4324"
    INDEX 01 00:25:52
  TRACK 18 AUDIO
    TITLE "0:"
    INDEX 01 00:26:73
  TRACK 19 AUDIO
    TITLE "9:cjc041_4325"
    INDEX 01 00:27:51
  TRACK 20 AUDIO
    TITLE "0:"
    INDEX 01 00:29:03
  TRACK 21 AUDIO
    TITLE "7:cjc041_4326"
    INDEX 01 00:30:57
  TRACK 22 AUDIO
    TITLE "0:"
    INDEX 01 00:31:71
  TRACK 23 AUDIO
    TITLE "8:cjc041_4327"
    INDEX 01 00:32:45
  TRACK 24 AUDIO
    TITLE "0:"
    INDEX 01 00:33:69
  TRACK 25 AUDIO
    TITLE "9:cjc041_4328"
    INDEX 01 00:34:40
  TRACK 26 AUDIO
    TITLE "0:"
    INDEX 01 00:35:57
  TRACK 27 AUDIO
    TITLE "7:cjc041_4329"
    INDEX 01 00:37:36
  TRACK 28 AUDIO
    TITLE "0:"
    INDEX 01 00:38:47
  TRACK 29 AUDIO
    TITLE "8:cjc041_4330"
    INDEX 01 00:39:31
  TRACK 30 AUDIO
    TITLE "0:"
    INDEX 01 00:41:08
  TRACK 31 AUDIO
    TITLE "9:cjc041_4331"
    INDEX 01 00:41:59
  TRACK 32 AUDIO
    TITLE "0:"
    INDEX 01 00:42:74
  TRACK 33 AUDIO
    TITLE "7:cjc041_4332"
    INDEX 01 00:44:52
  TRACK 34 AUDIO
    TITLE "0:"
    INDEX 01 00:45:69
  TRACK 35 AUDIO
    TITLE "8:cjc041_4333"
    INDEX 01 00:46:45
  TRACK 36 AUDIO
    TITLE "0:"
    INDEX 01 00:49:14
  TRACK 37 AUDIO
    TITLE "9:cjc041_4334"
    INDEX 01 00:49:67
  TRACK 38 AUDIO
    TITLE "0:"
    INDEX 01 00:51:09
  TRACK 39 AUDIO
    TITLE "7:cjc041_4335"
    INDEX 01 00:52:59
  TRACK 40 AUDIO
    TITLE "0:"
    INDEX 01 00:53:72
  TRACK 41 AUDIO
    TITLE "8:cjc041_4336"
    INDEX 01 00:54:50
  TRACK 42 AUDIO
    TITLE "0:"
    INDEX 01 00:55:48
  TRACK 43 AUDIO
    TITLE "9:cjc041_4337"
    INDEX 01 00:56:25
  TRACK 44 AUDIO
    TITLE "0:"
    INDEX 01 00:57:33
  TRACK 45 AUDIO
    TITLE "7:cjc041_4338"
    INDEX 01 00:59:18
  TRACK 46 AUDIO
    TITLE "0:"
    INDEX 01 01:00:21
  TRACK 47 AUDIO
    TITLE "8:cjc041_4339"
    INDEX 01 01:01:01
  TRACK 48 AUDIO
    TITLE "0:"
    INDEX 01 01:02:14
  TRACK 49 AUDIO
    TITLE "9:cjc041_4340"
    INDEX 01 01:02:71
  TRACK 50 AUDIO
    TITLE "0:"
    INDEX 01 01:04:03
  TRACK 51 AUDIO
    TITLE "7:cjc041_4341"
    INDEX 01 01:05:64
  TRACK 52 AUDIO
    TITLE "0:"
    INDEX 01 01:07:06
  TRACK 53 AUDIO
    TITLE "8:cjc041_4342"
    INDEX 01 01:07:59
  TRACK 54 AUDIO
    TITLE "0:"
    INDEX 01 01:08:54
  TRACK 55 AUDIO
    TITLE "9:cjc041_4343"
    INDEX 01 01:09:32
  TRACK 56 AUDIO
    TITLE "0:"
    INDEX 01 01:10:47
  TRACK 57 AUDIO
    TITLE "7:cjc041_4344"
    INDEX 01 01:12:32
  TRACK 58 AUDIO
    TITLE "0:"
    INDEX 01 01:13:42
  TRACK 59 AUDIO
    TITLE "8:cjc041_4345"
    INDEX 01 01:14:21
  TRACK 60 AUDIO
    TITLE "0:"
    INDEX 01 01:16:69
  TRACK 61 AUDIO
    TITLE "9:cjc041_4346"
    INDEX 01 01:17:51
  TRACK 62 AUDIO
    TITLE "0:"
    INDEX 01 01:18:60
  TRACK 63 AUDIO
    TITLE "7:cjc041_4347"
    INDEX 01 01:20:42
  TRACK 64 AUDIO
    TITLE "0:"
    INDEX 01 01:21:47
  TRACK 65 AUDIO
    TITLE "8:cjc041_4348"
    INDEX 01 01:22:21
  TRACK 66 AUDIO
    TITLE "0:"
    INDEX 01 01:25:00
  TRACK 67 AUDIO
    TITLE "9:cjc041_4349"
    INDEX 01 01:25:53
  TRACK 68 AUDIO
    TITLE "0:"
    INDEX 01 01:26:56
  TRACK 69 AUDIO
    TITLE "7:cjc041_4350"
    INDEX 01 01:28:33
  TRACK 70 AUDIO
    TITLE "0:"
    INDEX 01 01:29:48
  TRACK 71 AUDIO
    TITLE "8:cjc041_4351"
    INDEX 01 01:30:20
  TRACK 72 AUDIO
    TITLE "0:"
    INDEX 01 01:31:57
  TRACK 73 AUDIO
    TITLE "9:cjc041_4352"
    INDEX 01 01:32:39
  TRACK 74 AUDIO
    TITLE "0:"
    INDEX 01 01:33:54
  TRACK 75 AUDIO
    TITLE "7:cjc041_4353"
    INDEX 01 01:35:37
  TRACK 76 AUDIO
    TITLE "0:"
    INDEX 01 01:36:52
  TRACK 77 AUDIO
    TITLE "8:cjc041_4354"
    INDEX 01 01:37:28
  TRACK 78 AUDIO
    TITLE "0:"
    INDEX 01 01:40:21
  TRACK 79 AUDIO
    TITLE "9:cjc041_4355"
    INDEX 01 01:40:70
  TRACK 80 AUDIO
    TITLE "0:"
    INDEX 01 01:42:12
  TRACK 81 AUDIO
    TITLE "7:cjc041_4356"
    INDEX 01 01:43:66
  TRACK 82 AUDIO
    TITLE "0:"
    INDEX 01 01:45:02
  TRACK 83 AUDIO
    TITLE "8:cjc041_4357"
    INDEX 01 01:45:53
  TRACK 84 AUDIO
    TITLE "0:"
    INDEX 01 01:47:09
  TRACK 85 AUDIO
    TITLE "9:cjc041_4358"
    INDEX 01 01:47:62
  TRACK 86 AUDIO
    TITLE "0:"
    INDEX 01 01:48:73
  TRACK 87 AUDIO
    TITLE "7:cjc041_4359"
    INDEX 01 01:50:51
  TRACK 88 AUDIO
    TITLE "0:"
    INDEX 01 01:51:72
  TRACK 89 AUDIO
    TITLE "8:cjc041_4360"
    INDEX 01 01:52:46
  TRACK 90 AUDIO
    TITLE "0:"
    INDEX 01 01:54:09
  TRACK 91 AUDIO
    TITLE "9:cjc041_4361"
    INDEX 01 01:54:58
  TRACK 92 AUDIO
    TITLE "0:"
    INDEX 01 01:56:04
